# xmcd CD database file
#
# Track frame offsets:
#	150
#	13905
#	33365
#	45664
#	62460
#	76345
#	99405
#	119402
#	140832
#	160015
#	173925
#	189945
#	202222
#	223287
#	242377
#	258952
#
# Disc length: 3655 seconds
#
# Revision: 0
# Processed by: cddbd v1.5PL3 Copyright (c) Steve Scherf et al.
# Submitted via: CDex 1.51
#
DISCID=de0e4510
DTITLE=Harbour Jazz Band - 40 Years
DYEAR=1996
DGENRE=Jazz
TTITLE0=Eccentric
TTITLE1=Saturday Night Function
TTITLE2=Sweet Georgia Brown
TTITLE3=Blues For Soprano
TTITLE4=Shake It And Break It
TTITLE5=Body And Soul
TTITLE6=Cornet Shop Suey
TTITLE7=I'm Coming Virginia
TTITLE8=South Rampart Street Parade
TTITLE9=Petite Fleur
TTITLE10=Potato Head Blues
TTITLE11=Stardust
TTITLE12=Savoy Blues
TTITLE13=High Society
TTITLE14=Black Beauty
TTITLE15=Georgia Swing
EXTD=YEAR: 1996
EXTT0=
EXTT1=
EXTT2=
EXTT3=
EXTT4=
EXTT5=
EXTT6=
EXTT7=
EXTT8=
EXTT9=
EXTT10=
EXTT11=
EXTT12=
EXTT13=
EXTT14=
EXTT15=
PLAYORDER=
